<svg width="92" height="92" viewBox="0 0 92 92" fill="none" xmlns="http://www.w3.org/2000/svg">
<g filter="url(#filter0_d_121_54018)">
<path d="M11 22C11 13.7157 17.7157 7 26 7H66C74.2843 7 81 13.7157 81 22V62C81 70.2843 74.2843 77 66 77H26C17.7157 77 11 70.2843 11 62V22Z" fill="#3056D3"/>
</g>
<path fill-rule="evenodd" clip-rule="evenodd" d="M55.4577 34.9365C53.5457 33.1107 51.3333 31 46.5004 31C42.1786 31 39.2043 32.6883 37.576 36.0649C37.4793 36.2656 37.3873 36.4722 37.3 36.6847C37.2161 36.8893 37.1365 37.0993 37.0614 37.3148C37.0492 37.3499 37.0371 37.3851 37.0251 37.4204C36.9555 37.6255 37.2264 37.7705 37.3756 37.6136C37.3935 37.5948 37.4114 37.5761 37.4293 37.5575C37.5883 37.3929 37.7492 37.2377 37.9122 37.0919C38.0668 36.9536 38.2233 36.8238 38.3816 36.7024C39.9382 35.5086 41.6694 35.1358 43.575 35.5835C45.0583 35.9319 46.1191 36.9438 47.2921 38.0642C49.2042 39.8886 51.4173 42 56.2502 42C60.5711 42 63.5457 40.3119 65.1738 36.9362C65.2705 36.7355 65.3626 36.5288 65.4498 36.3162C65.5338 36.1117 65.6133 35.9016 65.6885 35.6861C65.7007 35.651 65.7128 35.6158 65.7248 35.5805C65.7943 35.3754 65.5234 35.2304 65.3742 35.3874C65.3564 35.4062 65.3385 35.4249 65.3206 35.4434C65.1616 35.6081 65.0007 35.7633 64.8377 35.9091C64.683 36.0474 64.5265 36.1773 64.3682 36.2987C62.812 37.4921 61.081 37.8647 59.1756 37.4165C57.6915 37.0681 56.6308 36.0562 55.4577 34.9365ZM58.9466 38.39C57.195 37.9786 55.96 36.7991 54.8464 35.7355C54.82 35.7102 54.7936 35.685 54.7673 35.6599L54.7671 35.6597C53.8041 34.7401 52.8614 33.8468 51.5983 33.163C50.3555 32.4901 48.759 32 46.5004 32C44.2126 32 42.4167 32.5023 41.0434 33.4329C40.4478 33.8365 39.9153 34.3318 39.4485 34.9254C40.7911 34.3599 42.2495 34.2448 43.8037 34.6099C45.5557 35.0215 46.791 36.2021 47.9053 37.267C47.9311 37.2916 47.9568 37.3162 47.9825 37.3407C48.9456 38.2597 49.8885 39.1529 51.1519 39.8368C52.395 40.5097 53.9917 41 56.2502 41C58.5376 41 60.3334 40.4977 61.7068 39.5672C62.3021 39.1638 62.8345 38.6689 63.3011 38.0757C61.9588 38.6407 60.5008 38.7555 58.9471 38.3901M49.1963 49.3908L49.1959 49.3907C47.4451 48.9786 46.2103 47.7992 45.0966 46.7355C45.0702 46.7103 45.0439 46.6851 45.0176 46.66C44.0544 45.741 43.1115 44.8476 41.848 44.1635C40.605 43.4904 39.0083 43 36.7498 43C34.4623 43 32.6664 43.5024 31.2931 44.433C30.6975 44.8366 30.1649 45.3319 29.6982 45.9255C31.0408 45.3599 32.499 45.2448 34.053 45.6099C35.8059 46.0214 37.0412 47.2021 38.1555 48.267C38.1813 48.2916 38.207 48.3162 38.2326 48.3407C39.1958 49.2598 40.1385 50.1529 41.4018 50.8368C42.6448 51.5097 44.2415 52 46.5004 52C48.788 52 50.5839 51.4978 51.9572 50.5673C52.5527 50.1638 53.0852 49.6687 53.5519 49.0752C52.2091 49.6408 50.7507 49.7559 49.1963 49.3908ZM54.6188 47.298C54.7771 47.1767 54.9335 47.0469 55.0881 46.9086C55.2511 46.7628 55.412 46.6076 55.571 46.443C55.5889 46.4244 55.6068 46.4057 55.6247 46.3869C55.7738 46.23 56.0447 46.3749 55.9752 46.58C55.9632 46.6153 55.9511 46.6505 55.9389 46.6856C55.8638 46.9012 55.7842 47.1112 55.7003 47.3157C55.6131 47.5283 55.5211 47.7348 55.4244 47.9355C53.7965 51.3121 50.8217 53 46.5004 53C41.6672 53 39.4547 50.889 37.5428 49.0647L37.5423 49.0642C36.3692 47.9438 35.3085 46.9319 33.8244 46.5835C31.9192 46.1357 30.1881 46.5087 28.6314 47.7027C28.4732 47.824 28.3167 47.9539 28.1621 48.0922C27.9992 48.2379 27.8382 48.3931 27.6793 48.5578C27.6613 48.5763 27.6434 48.595 27.6256 48.6138C27.4764 48.7707 27.2055 48.6258 27.2751 48.4207C27.287 48.3854 27.2991 48.3502 27.3114 48.3151C27.3865 48.0996 27.466 47.8895 27.5499 47.685C27.6371 47.4725 27.7291 47.2659 27.8258 47.0653C29.4537 43.6884 32.4285 42 36.7498 42C41.5823 42 43.7955 44.1118 45.7074 45.9361L45.7079 45.9365C46.881 47.0562 47.9417 48.0681 49.425 48.4173C51.3308 48.865 53.0621 48.492 54.6188 47.298Z" fill="white"/>
<defs>
<filter id="filter0_d_121_54018" x="0" y="0" width="92" height="92" filterUnits="userSpaceOnUse" color-interpolation-filters="sRGB">
<feFlood flood-opacity="0" result="BackgroundImageFix"/>
<feColorMatrix in="SourceAlpha" type="matrix" values="0 0 0 0 0 0 0 0 0 0 0 0 0 0 0 0 0 0 127 0" result="hardAlpha"/>
<feOffset dy="4"/>
<feGaussianBlur stdDeviation="5.5"/>
<feColorMatrix type="matrix" values="0 0 0 0 0 0 0 0 0 0 0 0 0 0 0 0 0 0 0.06 0"/>
<feBlend mode="normal" in2="BackgroundImageFix" result="effect1_dropShadow_121_54018"/>
<feBlend mode="normal" in="SourceGraphic" in2="effect1_dropShadow_121_54018" result="shape"/>
</filter>
</defs>
</svg>
