<svg width="180" height="196" viewBox="0 0 180 196" fill="none" xmlns="http://www.w3.org/2000/svg">
<path d="M8.81711 60.3601C3.94756 55.4905 3.94756 47.5954 8.81711 42.7259C13.6867 37.8563 21.5818 37.8563 26.4513 42.7259L153.235 169.509C158.104 174.379 158.104 182.274 153.235 187.143C148.365 192.013 140.47 192.013 135.6 187.143L8.81711 60.3601Z" fill="#3056D3"/>
<path d="M18.1011 38.959C10.9289 31.7869 10.9289 20.1585 18.1011 12.9863C25.2733 5.81411 36.9017 5.81411 44.0739 12.9863L166.312 135.225C173.484 142.397 173.484 154.025 166.312 161.197C159.14 168.37 147.512 168.37 140.339 161.197L18.1011 38.959Z" fill="#13C296"/>
</svg>
