<svg width="20" height="25" viewBox="0 0 20 25" fill="none" xmlns="http://www.w3.org/2000/svg">
<path d="M0.706257 23.7066C1.06341 23.7066 1.35294 23.9962 1.35294 24.3533C1.35294 24.7105 1.06341 25 0.706257 25C0.349102 25 0.0595703 24.7105 0.0595703 24.3533C0.0595703 23.9962 0.349102 23.7066 0.706257 23.7066Z" fill="#3056D3"/>
<path d="M6.39693 23.7066C6.75409 23.7066 7.04362 23.9962 7.04362 24.3533C7.04362 24.7105 6.75409 25 6.39693 25C6.03978 25 5.75024 24.7105 5.75024 24.3533C5.75024 23.9962 6.03978 23.7066 6.39693 23.7066Z" fill="#3056D3"/>
<path d="M12.0881 23.7066C12.4452 23.7066 12.7348 23.9962 12.7348 24.3533C12.7348 24.7105 12.4452 25 12.0881 25C11.7309 25 11.4414 24.7105 11.4414 24.3533C11.4414 23.9962 11.7309 23.7066 12.0881 23.7066Z" fill="#3056D3"/>
<path d="M17.7788 23.7066C18.1359 23.7066 18.4255 23.9962 18.4255 24.3533C18.4255 24.7105 18.1359 25 17.7788 25C17.4216 25 17.1321 24.7105 17.1321 24.3533C17.1321 23.9962 17.4216 23.7066 17.7788 23.7066Z" fill="#3056D3"/>
<path d="M0.706257 18.0157C1.06341 18.0157 1.35294 18.3052 1.35294 18.6624C1.35294 19.0196 1.06341 19.3091 0.706257 19.3091C0.349102 19.3091 0.0595703 19.0196 0.0595703 18.6624C0.0595703 18.3052 0.349102 18.0157 0.706257 18.0157Z" fill="#3056D3"/>
<path d="M6.39693 18.0157C6.75409 18.0157 7.04362 18.3052 7.04362 18.6624C7.04362 19.0196 6.75409 19.3091 6.39693 19.3091C6.03978 19.3091 5.75024 19.0196 5.75024 18.6624C5.75024 18.3052 6.03978 18.0157 6.39693 18.0157Z" fill="#3056D3"/>
<path d="M12.0881 18.0157C12.4452 18.0157 12.7348 18.3052 12.7348 18.6624C12.7348 19.0196 12.4452 19.3091 12.0881 19.3091C11.7309 19.3091 11.4414 19.0196 11.4414 18.6624C11.4414 18.3052 11.7309 18.0157 12.0881 18.0157Z" fill="#3056D3"/>
<path d="M17.7788 18.0157C18.1359 18.0157 18.4255 18.3052 18.4255 18.6624C18.4255 19.0196 18.1359 19.3091 17.7788 19.3091C17.4216 19.3091 17.1321 19.0196 17.1321 18.6624C17.1321 18.3052 17.4216 18.0157 17.7788 18.0157Z" fill="#3056D3"/>
<path d="M0.706257 12.3248C1.06341 12.3248 1.35294 12.6143 1.35294 12.9715C1.35294 13.3286 1.06341 13.6182 0.706257 13.6182C0.349102 13.6182 0.0595703 13.3286 0.0595703 12.9715C0.0595703 12.6143 0.349102 12.3248 0.706257 12.3248Z" fill="#3056D3"/>
<path d="M6.39693 12.3248C6.75409 12.3248 7.04362 12.6143 7.04362 12.9715C7.04362 13.3286 6.75409 13.6182 6.39693 13.6182C6.03978 13.6182 5.75024 13.3286 5.75024 12.9715C5.75024 12.6143 6.03978 12.3248 6.39693 12.3248Z" fill="#3056D3"/>
<path d="M12.0881 12.3248C12.4452 12.3248 12.7348 12.6143 12.7348 12.9715C12.7348 13.3286 12.4452 13.6182 12.0881 13.6182C11.7309 13.6182 11.4414 13.3286 11.4414 12.9715C11.4414 12.6143 11.7309 12.3248 12.0881 12.3248Z" fill="#3056D3"/>
<path d="M17.7788 12.3248C18.1359 12.3248 18.4255 12.6143 18.4255 12.9715C18.4255 13.3286 18.1359 13.6182 17.7788 13.6182C17.4216 13.6182 17.1321 13.3286 17.1321 12.9715C17.1321 12.6143 17.4216 12.3248 17.7788 12.3248Z" fill="#3056D3"/>
<path d="M0.706257 6.63387C1.06341 6.63387 1.35294 6.9234 1.35294 7.28056C1.35294 7.63771 1.06341 7.92725 0.706257 7.92725C0.349102 7.92725 0.0595703 7.63771 0.0595703 7.28056C0.0595703 6.9234 0.349102 6.63387 0.706257 6.63387Z" fill="#3056D3"/>
<path d="M6.39693 6.63387C6.75409 6.63387 7.04362 6.9234 7.04362 7.28056C7.04362 7.63771 6.75409 7.92725 6.39693 7.92725C6.03978 7.92725 5.75024 7.63771 5.75024 7.28056C5.75024 6.9234 6.03978 6.63387 6.39693 6.63387Z" fill="#3056D3"/>
<path d="M12.0881 6.63387C12.4452 6.63387 12.7348 6.9234 12.7348 7.28056C12.7348 7.63771 12.4452 7.92725 12.0881 7.92725C11.7309 7.92725 11.4414 7.63771 11.4414 7.28056C11.4414 6.9234 11.7309 6.63387 12.0881 6.63387Z" fill="#3056D3"/>
<path d="M17.7788 6.63387C18.1359 6.63387 18.4255 6.9234 18.4255 7.28056C18.4255 7.63771 18.1359 7.92725 17.7788 7.92725C17.4216 7.92725 17.1321 7.63771 17.1321 7.28056C17.1321 6.9234 17.4216 6.63387 17.7788 6.63387Z" fill="#3056D3"/>
<path d="M0.706257 0.942954C1.06341 0.942954 1.35294 1.23249 1.35294 1.58964C1.35294 1.9468 1.06341 2.23633 0.706257 2.23633C0.349102 2.23633 0.0595703 1.9468 0.0595703 1.58964C0.0595703 1.23249 0.349102 0.942954 0.706257 0.942954Z" fill="#3056D3"/>
<path d="M6.39693 0.942954C6.75409 0.942954 7.04362 1.23249 7.04362 1.58964C7.04362 1.9468 6.75409 2.23633 6.39693 2.23633C6.03978 2.23633 5.75024 1.9468 5.75024 1.58964C5.75024 1.23249 6.03978 0.942954 6.39693 0.942954Z" fill="#3056D3"/>
<path d="M12.0881 0.942954C12.4452 0.942954 12.7348 1.23249 12.7348 1.58964C12.7348 1.9468 12.4452 2.23633 12.0881 2.23633C11.7309 2.23633 11.4414 1.9468 11.4414 1.58964C11.4414 1.23249 11.7309 0.942954 12.0881 0.942954Z" fill="#3056D3"/>
<path d="M17.7788 0.942954C18.1359 0.942954 18.4255 1.23249 18.4255 1.58964C18.4255 1.9468 18.1359 2.23633 17.7788 2.23633C17.4216 2.23633 17.1321 1.9468 17.1321 1.58964C17.1321 1.23249 17.4216 0.942954 17.7788 0.942954Z" fill="#3056D3"/>
</svg>
