<svg width="50" height="49" viewBox="0 0 50 49" fill="none" xmlns="http://www.w3.org/2000/svg">
<path d="M45.9707 46.3164C45.9707 45.3548 46.7503 44.5752 47.7119 44.5752C48.6736 44.5752 49.4531 45.3548 49.4531 46.3164C49.4531 47.278 48.6736 48.0576 47.7119 48.0576C46.7503 48.0576 45.9707 47.2781 45.9707 46.3164Z" fill="white"/>
<path d="M45.9707 16.7158C45.9707 15.7542 46.7503 14.9746 47.7119 14.9746C48.6736 14.9746 49.4531 15.7542 49.4531 16.7158C49.4531 17.6775 48.6736 18.457 47.7119 18.457C46.7503 18.457 45.9707 17.6775 45.9707 16.7158Z" fill="white"/>
<path d="M45.9707 31.3418C45.9707 30.3802 46.7503 29.6006 47.7119 29.6006C48.6736 29.6006 49.4531 30.3801 49.4531 31.3418C49.4531 32.3034 48.6736 33.083 47.7119 33.083C46.7503 33.083 45.9707 32.3034 45.9707 31.3418Z" fill="white"/>
<path d="M45.9707 1.74121C45.9707 0.779564 46.7503 -3.33999e-06 47.7119 -3.42406e-06C48.6736 -3.50813e-06 49.4531 0.779564 49.4531 1.74121C49.4531 2.70285 48.6736 3.48242 47.7119 3.48242C46.7503 3.48242 45.9707 2.70285 45.9707 1.74121Z" fill="white"/>
<path d="M30.6484 46.3164C30.6484 45.3548 31.428 44.5752 32.3896 44.5752C33.3513 44.5752 34.1309 45.3548 34.1309 46.3164C34.1309 47.278 33.3513 48.0576 32.3896 48.0576C31.428 48.0576 30.6484 47.2781 30.6484 46.3164Z" fill="white"/>
<path d="M30.6484 16.7158C30.6484 15.7542 31.428 14.9746 32.3896 14.9746C33.3513 14.9746 34.1309 15.7542 34.1309 16.7158C34.1309 17.6775 33.3513 18.457 32.3896 18.457C31.428 18.457 30.6484 17.6775 30.6484 16.7158Z" fill="white"/>
<path d="M30.6484 31.3418C30.6484 30.3802 31.428 29.6006 32.3896 29.6006C33.3513 29.6006 34.1309 30.3801 34.1309 31.3418C34.1309 32.3034 33.3513 33.083 32.3896 33.083C31.428 33.083 30.6484 32.3034 30.6484 31.3418Z" fill="white"/>
<path d="M30.6484 1.74121C30.6484 0.779564 31.428 -3.33999e-06 32.3896 -3.42406e-06C33.3513 -3.50813e-06 34.1309 0.779564 34.1309 1.74121C34.1309 2.70285 33.3513 3.48242 32.3896 3.48242C31.428 3.48242 30.6484 2.70285 30.6484 1.74121Z" fill="white"/>
<path d="M15.3262 46.3164C15.3262 45.3548 16.1057 44.5752 17.0674 44.5752C18.029 44.5752 18.8086 45.3548 18.8086 46.3164C18.8086 47.278 18.029 48.0576 17.0674 48.0576C16.1057 48.0576 15.3262 47.2781 15.3262 46.3164Z" fill="white"/>
<path d="M15.3262 16.7158C15.3262 15.7542 16.1057 14.9746 17.0674 14.9746C18.029 14.9746 18.8086 15.7542 18.8086 16.7158C18.8086 17.6775 18.029 18.457 17.0674 18.457C16.1057 18.457 15.3262 17.6775 15.3262 16.7158Z" fill="white"/>
<path d="M15.3262 31.3418C15.3262 30.3802 16.1057 29.6006 17.0674 29.6006C18.029 29.6006 18.8086 30.3801 18.8086 31.3418C18.8086 32.3034 18.029 33.083 17.0674 33.083C16.1057 33.083 15.3262 32.3034 15.3262 31.3418Z" fill="white"/>
<path d="M15.3262 1.74121C15.3262 0.779564 16.1057 -3.33999e-06 17.0674 -3.42406e-06C18.029 -3.50813e-06 18.8086 0.779564 18.8086 1.74121C18.8086 2.70285 18.029 3.48242 17.0674 3.48242C16.1057 3.48242 15.3262 2.70285 15.3262 1.74121Z" fill="white"/>
<path d="M0.0019494 46.3164C0.00194931 45.3548 0.781517 44.5752 1.74316 44.5752C2.70481 44.5752 3.48437 45.3548 3.48437 46.3164C3.48437 47.278 2.70481 48.0576 1.74316 48.0576C0.781517 48.0576 0.00194948 47.2781 0.0019494 46.3164Z" fill="white"/>
<path d="M0.0019494 16.7158C0.00194931 15.7542 0.781517 14.9746 1.74316 14.9746C2.70481 14.9746 3.48437 15.7542 3.48437 16.7158C3.48437 17.6775 2.70481 18.457 1.74316 18.457C0.781517 18.457 0.00194948 17.6775 0.0019494 16.7158Z" fill="white"/>
<path d="M0.0019494 31.3418C0.00194931 30.3802 0.781517 29.6006 1.74316 29.6006C2.70481 29.6006 3.48437 30.3801 3.48437 31.3418C3.48437 32.3034 2.70481 33.083 1.74316 33.083C0.781517 33.083 0.00194948 32.3034 0.0019494 31.3418Z" fill="white"/>
<path d="M0.0019494 1.74121C0.00194931 0.779564 0.781517 -3.33999e-06 1.74316 -3.42406e-06C2.70481 -3.50813e-06 3.48437 0.779564 3.48437 1.74121C3.48437 2.70285 2.70481 3.48242 1.74316 3.48242C0.781517 3.48242 0.00194948 2.70285 0.0019494 1.74121Z" fill="white"/>
</svg>
