<svg width="77" height="77" viewBox="0 0 77 77" fill="none" xmlns="http://www.w3.org/2000/svg">
<path d="M1.66343 72.8587C2.58212 72.8587 3.32687 73.6034 3.32687 74.5221C3.32687 75.4408 2.58212 76.1855 1.66343 76.1855C0.744745 76.1855 -3.25538e-08 75.4408 -7.2711e-08 74.5221C-1.12868e-07 73.6034 0.744745 72.8587 1.66343 72.8587Z" fill="#13C296"/>
<path d="M1.66343 29.2766C2.58212 29.2766 3.32687 30.0214 3.32687 30.9401C3.32687 31.8588 2.58212 32.6035 1.66343 32.6035C0.744745 32.6035 -3.25538e-08 31.8588 -7.2711e-08 30.9401C-1.12868e-07 30.0214 0.744745 29.2766 1.66343 29.2766Z" fill="#13C296"/>
<path d="M16.3016 72.8587C17.2203 72.8587 17.9651 73.6034 17.9651 74.5221C17.9651 75.4408 17.2203 76.1855 16.3016 76.1855C15.3829 76.1855 14.6382 75.4408 14.6382 74.5221C14.6382 73.6034 15.3829 72.8587 16.3016 72.8587Z" fill="#13C296"/>
<path d="M16.3016 29.2766C17.2203 29.2766 17.9651 30.0214 17.9651 30.9401C17.9651 31.8588 17.2203 32.6035 16.3016 32.6035C15.3829 32.6035 14.6382 31.8588 14.6382 30.9401C14.6382 30.0214 15.3829 29.2766 16.3016 29.2766Z" fill="#13C296"/>
<path d="M30.9398 72.8587C31.8585 72.8587 32.6032 73.6034 32.6032 74.5221C32.6032 75.4408 31.8585 76.1855 30.9398 76.1855C30.0211 76.1855 29.2764 75.4408 29.2764 74.5221C29.2764 73.6034 30.0211 72.8587 30.9398 72.8587Z" fill="#13C296"/>
<path d="M30.9398 29.2766C31.8585 29.2766 32.6032 30.0214 32.6032 30.9401C32.6032 31.8588 31.8585 32.6035 30.9398 32.6035C30.0211 32.6035 29.2764 31.8588 29.2764 30.9401C29.2764 30.0214 30.0211 29.2766 30.9398 29.2766Z" fill="#13C296"/>
<path d="M45.578 72.8587C46.4967 72.8587 47.2414 73.6034 47.2414 74.5221C47.2414 75.4408 46.4967 76.1855 45.578 76.1855C44.6593 76.1855 43.9146 75.4408 43.9146 74.5221C43.9146 73.6034 44.6593 72.8587 45.578 72.8587Z" fill="#13C296"/>
<path d="M45.578 29.2766C46.4967 29.2766 47.2414 30.0214 47.2414 30.9401C47.2414 31.8588 46.4967 32.6035 45.578 32.6035C44.6593 32.6035 43.9146 31.8588 43.9146 30.9401C43.9146 30.0214 44.6593 29.2766 45.578 29.2766Z" fill="#13C296"/>
<path d="M60.2162 72.8577C61.1349 72.8577 61.8796 73.6024 61.8796 74.5211C61.8796 75.4398 61.1349 76.1846 60.2162 76.1846C59.2975 76.1846 58.5527 75.4398 58.5527 74.5211C58.5527 73.6024 59.2975 72.8577 60.2162 72.8577Z" fill="#13C296"/>
<path d="M74.6634 72.8587C75.5821 72.8587 76.3269 73.6034 76.3269 74.5221C76.3269 75.4408 75.5821 76.1855 74.6634 76.1855C73.7447 76.1855 73 75.4408 73 74.5221C73 73.6034 73.7447 72.8587 74.6634 72.8587Z" fill="#13C296"/>
<path d="M60.2162 29.2766C61.1349 29.2766 61.8796 30.0214 61.8796 30.9401C61.8796 31.8588 61.1349 32.6035 60.2162 32.6035C59.2975 32.6035 58.5527 31.8588 58.5527 30.9401C58.5527 30.0214 59.2975 29.2766 60.2162 29.2766Z" fill="#13C296"/>
<path d="M74.6634 29.2766C75.5821 29.2766 76.3269 30.0214 76.3269 30.9401C76.3269 31.8588 75.5821 32.6035 74.6634 32.6035C73.7447 32.6035 73 31.8588 73 30.9401C73 30.0214 73.7447 29.2766 74.6634 29.2766Z" fill="#13C296"/>
<path d="M1.66343 58.22C2.58212 58.22 3.32687 58.9648 3.32687 59.8834C3.32687 60.8021 2.58212 61.5469 1.66343 61.5469C0.744745 61.5469 -3.25538e-08 60.8021 -7.2711e-08 59.8834C-1.12868e-07 58.9648 0.744745 58.22 1.66343 58.22Z" fill="#13C296"/>
<path d="M1.66343 14.638C2.58212 14.638 3.32687 15.3827 3.32687 16.3014C3.32687 17.2201 2.58212 17.9648 1.66343 17.9648C0.744745 17.9648 -3.25538e-08 17.2201 -7.2711e-08 16.3014C-1.12868e-07 15.3827 0.744745 14.638 1.66343 14.638Z" fill="#13C296"/>
<path d="M16.3016 58.22C17.2203 58.22 17.9651 58.9648 17.9651 59.8834C17.9651 60.8021 17.2203 61.5469 16.3016 61.5469C15.3829 61.5469 14.6382 60.8021 14.6382 59.8834C14.6382 58.9648 15.3829 58.22 16.3016 58.22Z" fill="#13C296"/>
<path d="M16.3016 14.638C17.2203 14.638 17.9651 15.3827 17.9651 16.3014C17.9651 17.2201 17.2203 17.9648 16.3016 17.9648C15.3829 17.9648 14.6382 17.2201 14.6382 16.3014C14.6382 15.3827 15.3829 14.638 16.3016 14.638Z" fill="#13C296"/>
<path d="M30.9398 58.22C31.8585 58.22 32.6032 58.9648 32.6032 59.8834C32.6032 60.8021 31.8585 61.5469 30.9398 61.5469C30.0211 61.5469 29.2764 60.8021 29.2764 59.8834C29.2764 58.9648 30.0211 58.22 30.9398 58.22Z" fill="#13C296"/>
<path d="M30.9398 14.638C31.8585 14.638 32.6032 15.3827 32.6032 16.3014C32.6032 17.2201 31.8585 17.9648 30.9398 17.9648C30.0211 17.9648 29.2764 17.2201 29.2764 16.3014C29.2764 15.3827 30.0211 14.638 30.9398 14.638Z" fill="#13C296"/>
<path d="M45.578 58.22C46.4967 58.22 47.2414 58.9648 47.2414 59.8834C47.2414 60.8021 46.4967 61.5469 45.578 61.5469C44.6593 61.5469 43.9146 60.8021 43.9146 59.8834C43.9146 58.9648 44.6593 58.22 45.578 58.22Z" fill="#13C296"/>
<path d="M45.578 14.638C46.4967 14.638 47.2414 15.3827 47.2414 16.3014C47.2414 17.2201 46.4967 17.9648 45.578 17.9648C44.6593 17.9648 43.9146 17.2201 43.9146 16.3014C43.9146 15.3827 44.6593 14.638 45.578 14.638Z" fill="#13C296"/>
<path d="M60.2162 58.221C61.1349 58.221 61.8796 58.9657 61.8796 59.8844C61.8796 60.8031 61.1349 61.5479 60.2162 61.5479C59.2975 61.5479 58.5527 60.8031 58.5527 59.8844C58.5527 58.9657 59.2975 58.221 60.2162 58.221Z" fill="#13C296"/>
<path d="M74.6634 58.22C75.5821 58.22 76.3269 58.9648 76.3269 59.8834C76.3269 60.8021 75.5821 61.5469 74.6634 61.5469C73.7447 61.5469 73 60.8021 73 59.8834C73 58.9648 73.7447 58.22 74.6634 58.22Z" fill="#13C296"/>
<path d="M60.2162 14.638C61.1349 14.638 61.8796 15.3827 61.8796 16.3014C61.8796 17.2201 61.1349 17.9648 60.2162 17.9648C59.2975 17.9648 58.5527 17.2201 58.5527 16.3014C58.5527 15.3827 59.2975 14.638 60.2162 14.638Z" fill="#13C296"/>
<path d="M74.6634 14.638C75.5821 14.638 76.3269 15.3827 76.3269 16.3014C76.3269 17.2201 75.5821 17.9648 74.6634 17.9648C73.7447 17.9648 73 17.2201 73 16.3014C73 15.3827 73.7447 14.638 74.6634 14.638Z" fill="#13C296"/>
<path d="M1.66343 43.5823C2.58212 43.5823 3.32687 44.3271 3.32687 45.2457C3.32687 46.1644 2.58212 46.9092 1.66343 46.9092C0.744745 46.9092 -3.25538e-08 46.1644 -7.2711e-08 45.2457C-1.12868e-07 44.3271 0.744745 43.5823 1.66343 43.5823Z" fill="#13C296"/>
<path d="M1.66343 0.000280784C2.58212 0.000280744 3.32687 0.745025 3.32687 1.66371C3.32687 2.5824 2.58212 3.32715 1.66343 3.32715C0.744745 3.32715 -3.25538e-08 2.5824 -7.2711e-08 1.66371C-1.12868e-07 0.745026 0.744745 0.000280825 1.66343 0.000280784Z" fill="#13C296"/>
<path d="M16.3016 43.5823C17.2203 43.5823 17.9651 44.3271 17.9651 45.2457C17.9651 46.1644 17.2203 46.9092 16.3016 46.9092C15.3829 46.9092 14.6382 46.1644 14.6382 45.2457C14.6382 44.3271 15.3829 43.5823 16.3016 43.5823Z" fill="#13C296"/>
<path d="M16.3016 0.000280784C17.2203 0.000280744 17.9651 0.745025 17.9651 1.66371C17.9651 2.5824 17.2203 3.32715 16.3016 3.32715C15.3829 3.32715 14.6382 2.5824 14.6382 1.66371C14.6382 0.745026 15.3829 0.000280825 16.3016 0.000280784Z" fill="#13C296"/>
<path d="M30.9398 43.5823C31.8585 43.5823 32.6032 44.3271 32.6032 45.2457C32.6032 46.1644 31.8585 46.9092 30.9398 46.9092C30.0211 46.9092 29.2764 46.1644 29.2764 45.2457C29.2764 44.3271 30.0211 43.5823 30.9398 43.5823Z" fill="#13C296"/>
<path d="M30.9398 0.000280784C31.8585 0.000280744 32.6032 0.745025 32.6032 1.66371C32.6032 2.5824 31.8585 3.32715 30.9398 3.32715C30.0211 3.32715 29.2764 2.5824 29.2764 1.66371C29.2764 0.745026 30.0211 0.000280825 30.9398 0.000280784Z" fill="#13C296"/>
<path d="M45.578 43.5823C46.4967 43.5823 47.2414 44.3271 47.2414 45.2457C47.2414 46.1644 46.4967 46.9092 45.578 46.9092C44.6593 46.9092 43.9146 46.1644 43.9146 45.2457C43.9146 44.3271 44.6593 43.5823 45.578 43.5823Z" fill="#13C296"/>
<path d="M45.578 0.000280784C46.4967 0.000280744 47.2414 0.745025 47.2414 1.66371C47.2414 2.5824 46.4967 3.32715 45.578 3.32715C44.6593 3.32715 43.9146 2.5824 43.9146 1.66371C43.9146 0.745026 44.6593 0.000280825 45.578 0.000280784Z" fill="#13C296"/>
<path d="M60.2162 43.5823C61.1349 43.5823 61.8796 44.3271 61.8796 45.2457C61.8796 46.1644 61.1349 46.9092 60.2162 46.9092C59.2975 46.9092 58.5527 46.1644 58.5527 45.2457C58.5527 44.3271 59.2975 43.5823 60.2162 43.5823Z" fill="#13C296"/>
<path d="M74.6634 43.5823C75.5821 43.5823 76.3269 44.3271 76.3269 45.2457C76.3269 46.1644 75.5821 46.9092 74.6634 46.9092C73.7447 46.9092 73 46.1644 73 45.2457C73 44.3271 73.7447 43.5823 74.6634 43.5823Z" fill="#13C296"/>
<path d="M60.2162 0.000280784C61.1349 0.000280744 61.8796 0.745025 61.8796 1.66371C61.8796 2.5824 61.1349 3.32715 60.2162 3.32715C59.2975 3.32715 58.5527 2.5824 58.5527 1.66371C58.5527 0.745026 59.2975 0.000280825 60.2162 0.000280784Z" fill="#13C296"/>
<path d="M74.6634 0.000280784C75.5821 0.000280744 76.3269 0.745025 76.3269 1.66371C76.3269 2.5824 75.5821 3.32715 74.6634 3.32715C73.7447 3.32715 73 2.5824 73 1.66371C73 0.745026 73.7447 0.000280825 74.6634 0.000280784Z" fill="#13C296"/>
</svg>
