<svg width="134" height="106" viewBox="0 0 134 106" fill="none" xmlns="http://www.w3.org/2000/svg">
<path d="M1.66667 102.334C2.58714 102.334 3.33333 103.08 3.33333 104C3.33333 104.921 2.58714 105.667 1.66667 105.667C0.746192 105.667 -3.26171e-08 104.921 -7.28523e-08 104C-1.13088e-07 103.08 0.746192 102.334 1.66667 102.334Z" fill="#3056D3"/>
<path d="M16.3334 102.334C17.2538 102.334 18 103.08 18 104C18 104.921 17.2538 105.667 16.3334 105.667C15.4129 105.667 14.6667 104.921 14.6667 104C14.6667 103.08 15.4129 102.334 16.3334 102.334Z" fill="#3056D3"/>
<path d="M31 102.334C31.9205 102.334 32.6666 103.08 32.6666 104C32.6666 104.921 31.9205 105.667 31 105.667C30.0795 105.667 29.3333 104.921 29.3333 104C29.3333 103.08 30.0795 102.334 31 102.334Z" fill="#3056D3"/>
<path d="M45.6667 102.334C46.5871 102.334 47.3333 103.08 47.3333 104C47.3333 104.921 46.5871 105.667 45.6667 105.667C44.7462 105.667 44 104.921 44 104C44 103.08 44.7462 102.334 45.6667 102.334Z" fill="#3056D3"/>
<path d="M60.3334 102.334C61.2538 102.334 62 103.08 62 104C62 104.921 61.2538 105.667 60.3334 105.667C59.4129 105.667 58.6667 104.921 58.6667 104C58.6667 103.08 59.4129 102.334 60.3334 102.334Z" fill="#3056D3"/>
<path d="M88.6667 102.334C89.5871 102.334 90.3333 103.08 90.3333 104C90.3333 104.921 89.5871 105.667 88.6667 105.667C87.7462 105.667 87 104.921 87 104C87 103.08 87.7462 102.334 88.6667 102.334Z" fill="#3056D3"/>
<path d="M117.667 102.334C118.587 102.334 119.333 103.08 119.333 104C119.333 104.921 118.587 105.667 117.667 105.667C116.746 105.667 116 104.921 116 104C116 103.08 116.746 102.334 117.667 102.334Z" fill="#3056D3"/>
<path d="M74.6667 102.334C75.5871 102.334 76.3333 103.08 76.3333 104C76.3333 104.921 75.5871 105.667 74.6667 105.667C73.7462 105.667 73 104.921 73 104C73 103.08 73.7462 102.334 74.6667 102.334Z" fill="#3056D3"/>
<path d="M103 102.334C103.92 102.334 104.667 103.08 104.667 104C104.667 104.921 103.92 105.667 103 105.667C102.08 105.667 101.333 104.921 101.333 104C101.333 103.08 102.08 102.334 103 102.334Z" fill="#3056D3"/>
<path d="M132 102.334C132.92 102.334 133.667 103.08 133.667 104C133.667 104.921 132.92 105.667 132 105.667C131.08 105.667 130.333 104.921 130.333 104C130.333 103.08 131.08 102.334 132 102.334Z" fill="#3056D3"/>
<path d="M1.66667 87.6667C2.58714 87.6667 3.33333 88.4129 3.33333 89.3333C3.33333 90.2538 2.58714 91 1.66667 91C0.746192 91 -3.26171e-08 90.2538 -7.28523e-08 89.3333C-1.13088e-07 88.4129 0.746192 87.6667 1.66667 87.6667Z" fill="#3056D3"/>
<path d="M16.3334 87.6667C17.2538 87.6667 18 88.4129 18 89.3333C18 90.2538 17.2538 91 16.3334 91C15.4129 91 14.6667 90.2538 14.6667 89.3333C14.6667 88.4129 15.4129 87.6667 16.3334 87.6667Z" fill="#3056D3"/>
<path d="M31 87.6667C31.9205 87.6667 32.6666 88.4129 32.6666 89.3333C32.6666 90.2538 31.9205 91 31 91C30.0795 91 29.3333 90.2538 29.3333 89.3333C29.3333 88.4129 30.0795 87.6667 31 87.6667Z" fill="#3056D3"/>
<path d="M45.6667 87.6667C46.5871 87.6667 47.3333 88.4129 47.3333 89.3333C47.3333 90.2538 46.5871 91 45.6667 91C44.7462 91 44 90.2538 44 89.3333C44 88.4129 44.7462 87.6667 45.6667 87.6667Z" fill="#3056D3"/>
<path d="M60.3334 87.6672C61.2538 87.6672 62 88.4133 62 89.3338C62 90.2543 61.2538 91.0005 60.3334 91.0005C59.4129 91.0005 58.6667 90.2543 58.6667 89.3338C58.6667 88.4133 59.4129 87.6672 60.3334 87.6672Z" fill="#3056D3"/>
<path d="M88.6667 87.6672C89.5871 87.6672 90.3333 88.4133 90.3333 89.3338C90.3333 90.2543 89.5871 91.0005 88.6667 91.0005C87.7462 91.0005 87 90.2543 87 89.3338C87 88.4133 87.7462 87.6672 88.6667 87.6672Z" fill="#3056D3"/>
<path d="M117.667 87.6672C118.587 87.6672 119.333 88.4133 119.333 89.3338C119.333 90.2543 118.587 91.0005 117.667 91.0005C116.746 91.0005 116 90.2543 116 89.3338C116 88.4133 116.746 87.6672 117.667 87.6672Z" fill="#3056D3"/>
<path d="M74.6667 87.6672C75.5871 87.6672 76.3333 88.4133 76.3333 89.3338C76.3333 90.2543 75.5871 91.0005 74.6667 91.0005C73.7462 91.0005 73 90.2543 73 89.3338C73 88.4133 73.7462 87.6672 74.6667 87.6672Z" fill="#3056D3"/>
<path d="M103 87.6672C103.92 87.6672 104.667 88.4133 104.667 89.3338C104.667 90.2543 103.92 91.0005 103 91.0005C102.08 91.0005 101.333 90.2543 101.333 89.3338C101.333 88.4133 102.08 87.6672 103 87.6672Z" fill="#3056D3"/>
<path d="M132 87.6672C132.92 87.6672 133.667 88.4133 133.667 89.3338C133.667 90.2543 132.92 91.0005 132 91.0005C131.08 91.0005 130.333 90.2543 130.333 89.3338C130.333 88.4133 131.08 87.6672 132 87.6672Z" fill="#3056D3"/>
<path d="M1.66667 73.0007C2.58714 73.0007 3.33333 73.7468 3.33333 74.6673C3.33333 75.5878 2.58714 76.334 1.66667 76.334C0.746192 76.334 -3.26171e-08 75.5878 -7.28523e-08 74.6673C-1.13088e-07 73.7468 0.746192 73.0007 1.66667 73.0007Z" fill="#3056D3"/>
<path d="M1.66667 29.3337C2.58714 29.3337 3.33333 30.0799 3.33333 31.0003C3.33333 31.9208 2.58714 32.667 1.66667 32.667C0.746192 32.667 -3.26171e-08 31.9208 -7.28523e-08 31.0003C-1.13088e-07 30.0799 0.746192 29.3337 1.66667 29.3337Z" fill="#3056D3"/>
<path d="M16.3334 73.0002C17.2538 73.0002 18 73.7464 18 74.6668C18 75.5873 17.2538 76.3335 16.3334 76.3335C15.4129 76.3335 14.6667 75.5873 14.6667 74.6668C14.6667 73.7464 15.4129 73.0002 16.3334 73.0002Z" fill="#3056D3"/>
<path d="M16.3334 29.3337C17.2538 29.3337 18 30.0799 18 31.0003C18 31.9208 17.2538 32.667 16.3334 32.667C15.4129 32.667 14.6667 31.9208 14.6667 31.0003C14.6667 30.0799 15.4129 29.3337 16.3334 29.3337Z" fill="#3056D3"/>
<path d="M31 73.0002C31.9205 73.0002 32.6666 73.7464 32.6666 74.6668C32.6666 75.5873 31.9205 76.3335 31 76.3335C30.0795 76.3335 29.3333 75.5873 29.3333 74.6668C29.3333 73.7464 30.0795 73.0002 31 73.0002Z" fill="#3056D3"/>
<path d="M31 29.3337C31.9205 29.3337 32.6666 30.0799 32.6666 31.0003C32.6666 31.9208 31.9205 32.667 31 32.667C30.0795 32.667 29.3333 31.9208 29.3333 31.0003C29.3333 30.0799 30.0795 29.3337 31 29.3337Z" fill="#3056D3"/>
<path d="M45.6667 73.0002C46.5871 73.0002 47.3333 73.7464 47.3333 74.6668C47.3333 75.5873 46.5871 76.3335 45.6667 76.3335C44.7462 76.3335 44 75.5873 44 74.6668C44 73.7464 44.7462 73.0002 45.6667 73.0002Z" fill="#3056D3"/>
<path d="M45.6667 29.3337C46.5871 29.3337 47.3333 30.0799 47.3333 31.0003C47.3333 31.9208 46.5871 32.667 45.6667 32.667C44.7462 32.667 44 31.9208 44 31.0003C44 30.0799 44.7462 29.3337 45.6667 29.3337Z" fill="#3056D3"/>
<path d="M60.3334 73.0002C61.2538 73.0002 62 73.7464 62 74.6668C62 75.5873 61.2538 76.3335 60.3334 76.3335C59.4129 76.3335 58.6667 75.5873 58.6667 74.6668C58.6667 73.7464 59.4129 73.0002 60.3334 73.0002Z" fill="#3056D3"/>
<path d="M60.3334 29.3332C61.2538 29.3332 62 30.0794 62 30.9998C62 31.9203 61.2538 32.6665 60.3334 32.6665C59.4129 32.6665 58.6667 31.9203 58.6667 30.9998C58.6667 30.0794 59.4129 29.3332 60.3334 29.3332Z" fill="#3056D3"/>
<path d="M88.6667 73.0002C89.5871 73.0002 90.3333 73.7464 90.3333 74.6668C90.3333 75.5873 89.5871 76.3335 88.6667 76.3335C87.7462 76.3335 87 75.5873 87 74.6668C87 73.7464 87.7462 73.0002 88.6667 73.0002Z" fill="#3056D3"/>
<path d="M88.6667 29.3332C89.5871 29.3332 90.3333 30.0794 90.3333 30.9998C90.3333 31.9203 89.5871 32.6665 88.6667 32.6665C87.7462 32.6665 87 31.9203 87 30.9998C87 30.0794 87.7462 29.3332 88.6667 29.3332Z" fill="#3056D3"/>
<path d="M117.667 73.0002C118.587 73.0002 119.333 73.7464 119.333 74.6668C119.333 75.5873 118.587 76.3335 117.667 76.3335C116.746 76.3335 116 75.5873 116 74.6668C116 73.7464 116.746 73.0002 117.667 73.0002Z" fill="#3056D3"/>
<path d="M117.667 29.3332C118.587 29.3332 119.333 30.0794 119.333 30.9998C119.333 31.9203 118.587 32.6665 117.667 32.6665C116.746 32.6665 116 31.9203 116 30.9998C116 30.0794 116.746 29.3332 117.667 29.3332Z" fill="#3056D3"/>
<path d="M74.6667 73.0002C75.5871 73.0002 76.3333 73.7464 76.3333 74.6668C76.3333 75.5873 75.5871 76.3335 74.6667 76.3335C73.7462 76.3335 73 75.5873 73 74.6668C73 73.7464 73.7462 73.0002 74.6667 73.0002Z" fill="#3056D3"/>
<path d="M74.6667 29.3332C75.5871 29.3332 76.3333 30.0794 76.3333 30.9998C76.3333 31.9203 75.5871 32.6665 74.6667 32.6665C73.7462 32.6665 73 31.9203 73 30.9998C73 30.0794 73.7462 29.3332 74.6667 29.3332Z" fill="#3056D3"/>
<path d="M103 73.0002C103.92 73.0002 104.667 73.7464 104.667 74.6668C104.667 75.5873 103.92 76.3335 103 76.3335C102.08 76.3335 101.333 75.5873 101.333 74.6668C101.333 73.7464 102.08 73.0002 103 73.0002Z" fill="#3056D3"/>
<path d="M103 29.3332C103.92 29.3332 104.667 30.0794 104.667 30.9998C104.667 31.9203 103.92 32.6665 103 32.6665C102.08 32.6665 101.333 31.9203 101.333 30.9998C101.333 30.0794 102.08 29.3332 103 29.3332Z" fill="#3056D3"/>
<path d="M132 73.0002C132.92 73.0002 133.667 73.7464 133.667 74.6668C133.667 75.5873 132.92 76.3335 132 76.3335C131.08 76.3335 130.333 75.5873 130.333 74.6668C130.333 73.7464 131.08 73.0002 132 73.0002Z" fill="#3056D3"/>
<path d="M132 29.3332C132.92 29.3332 133.667 30.0794 133.667 30.9998C133.667 31.9203 132.92 32.6665 132 32.6665C131.08 32.6665 130.333 31.9203 130.333 30.9998C130.333 30.0794 131.08 29.3332 132 29.3332Z" fill="#3056D3"/>
<path d="M1.66667 58.3337C2.58714 58.3337 3.33333 59.0799 3.33333 60.0003C3.33333 60.9208 2.58714 61.667 1.66667 61.667C0.746192 61.667 -3.26171e-08 60.9208 -7.28523e-08 60.0003C-1.13088e-07 59.0799 0.746192 58.3337 1.66667 58.3337Z" fill="#3056D3"/>
<path d="M1.66667 14.6667C2.58714 14.6667 3.33333 15.4129 3.33333 16.3333C3.33333 17.2538 2.58714 18 1.66667 18C0.746192 18 -3.26171e-08 17.2538 -7.28523e-08 16.3333C-1.13088e-07 15.4129 0.746192 14.6667 1.66667 14.6667Z" fill="#3056D3"/>
<path d="M16.3334 58.3337C17.2538 58.3337 18 59.0799 18 60.0003C18 60.9208 17.2538 61.667 16.3334 61.667C15.4129 61.667 14.6667 60.9208 14.6667 60.0003C14.6667 59.0799 15.4129 58.3337 16.3334 58.3337Z" fill="#3056D3"/>
<path d="M16.3334 14.6667C17.2538 14.6667 18 15.4129 18 16.3333C18 17.2538 17.2538 18 16.3334 18C15.4129 18 14.6667 17.2538 14.6667 16.3333C14.6667 15.4129 15.4129 14.6667 16.3334 14.6667Z" fill="#3056D3"/>
<path d="M31 58.3337C31.9205 58.3337 32.6666 59.0799 32.6666 60.0003C32.6666 60.9208 31.9205 61.667 31 61.667C30.0795 61.667 29.3333 60.9208 29.3333 60.0003C29.3333 59.0799 30.0795 58.3337 31 58.3337Z" fill="#3056D3"/>
<path d="M31 14.6667C31.9205 14.6667 32.6666 15.4129 32.6666 16.3333C32.6666 17.2538 31.9205 18 31 18C30.0795 18 29.3333 17.2538 29.3333 16.3333C29.3333 15.4129 30.0795 14.6667 31 14.6667Z" fill="#3056D3"/>
<path d="M45.6667 58.3337C46.5871 58.3337 47.3333 59.0799 47.3333 60.0003C47.3333 60.9208 46.5871 61.667 45.6667 61.667C44.7462 61.667 44 60.9208 44 60.0003C44 59.0799 44.7462 58.3337 45.6667 58.3337Z" fill="#3056D3"/>
<path d="M45.6667 14.6667C46.5871 14.6667 47.3333 15.4129 47.3333 16.3333C47.3333 17.2538 46.5871 18 45.6667 18C44.7462 18 44 17.2538 44 16.3333C44 15.4129 44.7462 14.6667 45.6667 14.6667Z" fill="#3056D3"/>
<path d="M60.3334 58.3337C61.2538 58.3337 62 59.0799 62 60.0003C62 60.9208 61.2538 61.667 60.3334 61.667C59.4129 61.667 58.6667 60.9208 58.6667 60.0003C58.6667 59.0799 59.4129 58.3337 60.3334 58.3337Z" fill="#3056D3"/>
<path d="M60.3334 14.6667C61.2538 14.6667 62 15.4129 62 16.3333C62 17.2538 61.2538 18 60.3334 18C59.4129 18 58.6667 17.2538 58.6667 16.3333C58.6667 15.4129 59.4129 14.6667 60.3334 14.6667Z" fill="#3056D3"/>
<path d="M88.6667 58.3337C89.5871 58.3337 90.3333 59.0799 90.3333 60.0003C90.3333 60.9208 89.5871 61.667 88.6667 61.667C87.7462 61.667 87 60.9208 87 60.0003C87 59.0799 87.7462 58.3337 88.6667 58.3337Z" fill="#3056D3"/>
<path d="M88.6667 14.6667C89.5871 14.6667 90.3333 15.4129 90.3333 16.3333C90.3333 17.2538 89.5871 18 88.6667 18C87.7462 18 87 17.2538 87 16.3333C87 15.4129 87.7462 14.6667 88.6667 14.6667Z" fill="#3056D3"/>
<path d="M117.667 58.3337C118.587 58.3337 119.333 59.0799 119.333 60.0003C119.333 60.9208 118.587 61.667 117.667 61.667C116.746 61.667 116 60.9208 116 60.0003C116 59.0799 116.746 58.3337 117.667 58.3337Z" fill="#3056D3"/>
<path d="M117.667 14.6667C118.587 14.6667 119.333 15.4129 119.333 16.3333C119.333 17.2538 118.587 18 117.667 18C116.746 18 116 17.2538 116 16.3333C116 15.4129 116.746 14.6667 117.667 14.6667Z" fill="#3056D3"/>
<path d="M74.6667 58.3337C75.5871 58.3337 76.3333 59.0799 76.3333 60.0003C76.3333 60.9208 75.5871 61.667 74.6667 61.667C73.7462 61.667 73 60.9208 73 60.0003C73 59.0799 73.7462 58.3337 74.6667 58.3337Z" fill="#3056D3"/>
<path d="M74.6667 14.6667C75.5871 14.6667 76.3333 15.4129 76.3333 16.3333C76.3333 17.2538 75.5871 18 74.6667 18C73.7462 18 73 17.2538 73 16.3333C73 15.4129 73.7462 14.6667 74.6667 14.6667Z" fill="#3056D3"/>
<path d="M103 58.3337C103.92 58.3337 104.667 59.0799 104.667 60.0003C104.667 60.9208 103.92 61.667 103 61.667C102.08 61.667 101.333 60.9208 101.333 60.0003C101.333 59.0799 102.08 58.3337 103 58.3337Z" fill="#3056D3"/>
<path d="M103 14.6667C103.92 14.6667 104.667 15.4129 104.667 16.3333C104.667 17.2538 103.92 18 103 18C102.08 18 101.333 17.2538 101.333 16.3333C101.333 15.4129 102.08 14.6667 103 14.6667Z" fill="#3056D3"/>
<path d="M132 58.3337C132.92 58.3337 133.667 59.0799 133.667 60.0003C133.667 60.9208 132.92 61.667 132 61.667C131.08 61.667 130.333 60.9208 130.333 60.0003C130.333 59.0799 131.08 58.3337 132 58.3337Z" fill="#3056D3"/>
<path d="M132 14.6667C132.92 14.6667 133.667 15.4129 133.667 16.3333C133.667 17.2538 132.92 18 132 18C131.08 18 130.333 17.2538 130.333 16.3333C130.333 15.4129 131.08 14.6667 132 14.6667Z" fill="#3056D3"/>
<path d="M1.66667 43.6667C2.58714 43.6667 3.33333 44.4129 3.33333 45.3333C3.33333 46.2538 2.58714 47 1.66667 47C0.746192 47 -3.26171e-08 46.2538 -7.28523e-08 45.3333C-1.13088e-07 44.4129 0.746192 43.6667 1.66667 43.6667Z" fill="#3056D3"/>
<path d="M1.66667 0.000162767C2.58714 0.000162727 3.33333 0.746355 3.33333 1.66683C3.33333 2.5873 2.58714 3.3335 1.66667 3.3335C0.746192 3.3335 -3.26171e-08 2.5873 -7.28523e-08 1.66683C-1.13088e-07 0.746355 0.746192 0.000162807 1.66667 0.000162767Z" fill="#3056D3"/>
<path d="M16.3334 43.6667C17.2538 43.6667 18 44.4129 18 45.3333C18 46.2538 17.2538 47 16.3334 47C15.4129 47 14.6667 46.2538 14.6667 45.3333C14.6667 44.4129 15.4129 43.6667 16.3334 43.6667Z" fill="#3056D3"/>
<path d="M16.3334 0.000162767C17.2538 0.000162727 18 0.746355 18 1.66683C18 2.5873 17.2538 3.3335 16.3334 3.3335C15.4129 3.3335 14.6667 2.5873 14.6667 1.66683C14.6667 0.746355 15.4129 0.000162807 16.3334 0.000162767Z" fill="#3056D3"/>
<path d="M31 43.6667C31.9205 43.6667 32.6666 44.4129 32.6666 45.3333C32.6666 46.2538 31.9205 47 31 47C30.0795 47 29.3333 46.2538 29.3333 45.3333C29.3333 44.4129 30.0795 43.6667 31 43.6667Z" fill="#3056D3"/>
<path d="M31 0.000162767C31.9205 0.000162727 32.6666 0.746355 32.6666 1.66683C32.6666 2.5873 31.9205 3.3335 31 3.3335C30.0795 3.3335 29.3333 2.5873 29.3333 1.66683C29.3333 0.746355 30.0795 0.000162807 31 0.000162767Z" fill="#3056D3"/>
<path d="M45.6667 43.6667C46.5871 43.6667 47.3333 44.4129 47.3333 45.3333C47.3333 46.2538 46.5871 47 45.6667 47C44.7462 47 44 46.2538 44 45.3333C44 44.4129 44.7462 43.6667 45.6667 43.6667Z" fill="#3056D3"/>
<path d="M45.6667 0.000162767C46.5871 0.000162727 47.3333 0.746355 47.3333 1.66683C47.3333 2.5873 46.5871 3.3335 45.6667 3.3335C44.7462 3.3335 44 2.5873 44 1.66683C44 0.746355 44.7462 0.000162807 45.6667 0.000162767Z" fill="#3056D3"/>
<path d="M60.3334 43.6672C61.2538 43.6672 62 44.4133 62 45.3338C62 46.2543 61.2538 47.0005 60.3334 47.0005C59.4129 47.0005 58.6667 46.2543 58.6667 45.3338C58.6667 44.4133 59.4129 43.6672 60.3334 43.6672Z" fill="#3056D3"/>
<path d="M60.3334 0.000162767C61.2538 0.000162727 62 0.746355 62 1.66683C62 2.5873 61.2538 3.3335 60.3334 3.3335C59.4129 3.3335 58.6667 2.5873 58.6667 1.66683C58.6667 0.746355 59.4129 0.000162807 60.3334 0.000162767Z" fill="#3056D3"/>
<path d="M88.6667 43.6672C89.5871 43.6672 90.3333 44.4133 90.3333 45.3338C90.3333 46.2543 89.5871 47.0005 88.6667 47.0005C87.7462 47.0005 87 46.2543 87 45.3338C87 44.4133 87.7462 43.6672 88.6667 43.6672Z" fill="#3056D3"/>
<path d="M88.6667 0.000162767C89.5871 0.000162727 90.3333 0.746355 90.3333 1.66683C90.3333 2.5873 89.5871 3.3335 88.6667 3.3335C87.7462 3.3335 87 2.5873 87 1.66683C87 0.746355 87.7462 0.000162807 88.6667 0.000162767Z" fill="#3056D3"/>
<path d="M117.667 43.6672C118.587 43.6672 119.333 44.4133 119.333 45.3338C119.333 46.2543 118.587 47.0005 117.667 47.0005C116.746 47.0005 116 46.2543 116 45.3338C116 44.4133 116.746 43.6672 117.667 43.6672Z" fill="#3056D3"/>
<path d="M117.667 0.000162767C118.587 0.000162727 119.333 0.746355 119.333 1.66683C119.333 2.5873 118.587 3.3335 117.667 3.3335C116.746 3.3335 116 2.5873 116 1.66683C116 0.746355 116.746 0.000162807 117.667 0.000162767Z" fill="#3056D3"/>
<path d="M74.6667 43.6672C75.5871 43.6672 76.3333 44.4133 76.3333 45.3338C76.3333 46.2543 75.5871 47.0005 74.6667 47.0005C73.7462 47.0005 73 46.2543 73 45.3338C73 44.4133 73.7462 43.6672 74.6667 43.6672Z" fill="#3056D3"/>
<path d="M74.6667 0.000162767C75.5871 0.000162727 76.3333 0.746355 76.3333 1.66683C76.3333 2.5873 75.5871 3.3335 74.6667 3.3335C73.7462 3.3335 73 2.5873 73 1.66683C73 0.746355 73.7462 0.000162807 74.6667 0.000162767Z" fill="#3056D3"/>
<path d="M103 43.6672C103.92 43.6672 104.667 44.4133 104.667 45.3338C104.667 46.2543 103.92 47.0005 103 47.0005C102.08 47.0005 101.333 46.2543 101.333 45.3338C101.333 44.4133 102.08 43.6672 103 43.6672Z" fill="#3056D3"/>
<path d="M103 0.000162767C103.92 0.000162727 104.667 0.746355 104.667 1.66683C104.667 2.5873 103.92 3.3335 103 3.3335C102.08 3.3335 101.333 2.5873 101.333 1.66683C101.333 0.746355 102.08 0.000162807 103 0.000162767Z" fill="#3056D3"/>
<path d="M132 43.6672C132.92 43.6672 133.667 44.4133 133.667 45.3338C133.667 46.2543 132.92 47.0005 132 47.0005C131.08 47.0005 130.333 46.2543 130.333 45.3338C130.333 44.4133 131.08 43.6672 132 43.6672Z" fill="#3056D3"/>
<path d="M132 0.000162767C132.92 0.000162727 133.667 0.746355 133.667 1.66683C133.667 2.5873 132.92 3.3335 132 3.3335C131.08 3.3335 130.333 2.5873 130.333 1.66683C130.333 0.746355 131.08 0.000162807 132 0.000162767Z" fill="#3056D3"/>
</svg>
